<svg width="29" height="30" viewBox="0 0 29 30" fill="none" xmlns="http://www.w3.org/2000/svg">
<g id="mdi:cart-outline">
<path id="Vector" d="M20.5416 22.25C21.1825 22.25 21.7972 22.5046 22.2504 22.9578C22.7036 23.4111 22.9583 24.0257 22.9583 24.6667C22.9583 25.3076 22.7036 25.9223 22.2504 26.3755C21.7972 26.8287 21.1825 27.0834 20.5416 27.0834C19.9006 27.0834 19.286 26.8287 18.8327 26.3755C18.3795 25.9223 18.1249 25.3076 18.1249 24.6667C18.1249 23.3254 19.2003 22.25 20.5416 22.25ZM1.20825 2.91669H5.1595L6.29534 5.33335H24.1666C24.4871 5.33335 24.7944 5.46066 25.021 5.68727C25.2476 5.91387 25.3749 6.22122 25.3749 6.54169C25.3749 6.7471 25.3145 6.95252 25.2299 7.14585L20.9041 14.9638C20.4933 15.7009 19.6958 16.2084 18.7895 16.2084H9.78742L8.69992 18.1779L8.66367 18.3229C8.66367 18.4031 8.6955 18.4799 8.75215 18.5365C8.8088 18.5932 8.88563 18.625 8.96575 18.625H22.9583V21.0417H8.45825C7.81731 21.0417 7.20262 20.7871 6.74941 20.3339C6.2962 19.8806 6.04159 19.266 6.04159 18.625C6.04159 18.2021 6.15034 17.8034 6.33159 17.465L7.97492 14.5046L3.62492 5.33335H1.20825V2.91669ZM8.45825 22.25C9.09919 22.25 9.71388 22.5046 10.1671 22.9578C10.6203 23.4111 10.8749 24.0257 10.8749 24.6667C10.8749 25.3076 10.6203 25.9223 10.1671 26.3755C9.71388 26.8287 9.09919 27.0834 8.45825 27.0834C7.81731 27.0834 7.20262 26.8287 6.74941 26.3755C6.2962 25.9223 6.04159 25.3076 6.04159 24.6667C6.04159 23.3254 7.117 22.25 8.45825 22.25ZM19.3333 13.7917L22.6924 7.75002H7.41909L10.2708 13.7917H19.3333Z" fill="white"/>
</g>
</svg>
