<svg width="19" height="18" viewBox="0 0 19 18" fill="none" xmlns="http://www.w3.org/2000/svg">
<g id="mdi:phone">
<path id="Vector" d="M5.67105 8.0925C6.75105 10.215 8.49105 11.955 10.6136 13.035L12.2636 11.385C12.4736 11.175 12.7661 11.115 13.0286 11.1975C13.8686 11.475 14.7686 11.625 15.7061 11.625C15.905 11.625 16.0957 11.704 16.2364 11.8447C16.377 11.9853 16.4561 12.1761 16.4561 12.375V15C16.4561 15.1989 16.377 15.3897 16.2364 15.5303C16.0957 15.671 15.905 15.75 15.7061 15.75C12.3245 15.75 9.08153 14.4067 6.69044 12.0156C4.29935 9.62452 2.95605 6.38151 2.95605 3C2.95605 2.80109 3.03507 2.61032 3.17572 2.46967C3.31638 2.32902 3.50714 2.25 3.70605 2.25H6.33105C6.52997 2.25 6.72073 2.32902 6.86138 2.46967C7.00204 2.61032 7.08105 2.80109 7.08105 3C7.08105 3.9375 7.23105 4.8375 7.50855 5.6775C7.59105 5.94 7.53105 6.2325 7.32105 6.4425L5.67105 8.0925Z" fill="white"/>
</g>
</svg>
