<svg width="29" height="30" viewBox="0 0 29 30" fill="none" xmlns="http://www.w3.org/2000/svg">
<g id="mdi:cart-outline">
<path id="Vector" d="M20.5416 22.25C21.1826 22.25 21.7973 22.5046 22.2505 22.9578C22.7037 23.4111 22.9583 24.0257 22.9583 24.6667C22.9583 25.3076 22.7037 25.9223 22.2505 26.3755C21.7973 26.8287 21.1826 27.0834 20.5416 27.0834C19.9007 27.0834 19.286 26.8287 18.8328 26.3755C18.3796 25.9223 18.125 25.3076 18.125 24.6667C18.125 23.3254 19.2004 22.25 20.5416 22.25ZM1.20831 2.91669H5.15956L6.2954 5.33335H24.1666C24.4871 5.33335 24.7945 5.46066 25.0211 5.68727C25.2477 5.91387 25.375 6.22122 25.375 6.54169C25.375 6.7471 25.3146 6.95252 25.23 7.14585L20.9041 14.9638C20.4933 15.7009 19.6958 16.2084 18.7896 16.2084H9.78748L8.69998 18.1779L8.66373 18.3229C8.66373 18.4031 8.69556 18.4799 8.75221 18.5365C8.80886 18.5932 8.8857 18.625 8.96581 18.625H22.9583V21.0417H8.45831C7.81737 21.0417 7.20268 20.7871 6.74947 20.3339C6.29626 19.8806 6.04165 19.266 6.04165 18.625C6.04165 18.2021 6.1504 17.8034 6.33165 17.465L7.97498 14.5046L3.62498 5.33335H1.20831V2.91669ZM8.45831 22.25C9.09925 22.25 9.71394 22.5046 10.1672 22.9578C10.6204 23.4111 10.875 24.0257 10.875 24.6667C10.875 25.3076 10.6204 25.9223 10.1672 26.3755C9.71394 26.8287 9.09925 27.0834 8.45831 27.0834C7.81737 27.0834 7.20268 26.8287 6.74947 26.3755C6.29626 25.9223 6.04165 25.3076 6.04165 24.6667C6.04165 23.3254 7.11706 22.25 8.45831 22.25ZM19.3333 13.7917L22.6925 7.75002H7.41915L10.2708 13.7917H19.3333Z" fill="white"/>
</g>
</svg>
