<svg width="19" height="18" viewBox="0 0 19 18" fill="none" xmlns="http://www.w3.org/2000/svg">
<g id="mdi:whatsapp">
<path id="Vector" d="M9.73615 1.49998C5.64115 1.49998 2.30365 4.83748 2.30365 8.93248C2.30365 10.245 2.64865 11.52 3.29365 12.645L2.24365 16.5L6.18115 15.465C7.26865 16.0575 8.49115 16.3725 9.73615 16.3725C13.8312 16.3725 17.1687 13.035 17.1687 8.93998C17.1687 6.95248 16.3962 5.08498 14.9937 3.68248C14.306 2.98806 13.4869 2.43745 12.5843 2.06275C11.6817 1.68805 10.7135 1.49674 9.73615 1.49998ZM9.74365 2.75248C11.3937 2.75248 12.9387 3.39748 14.1087 4.56748C14.6827 5.14162 15.1378 5.82336 15.448 6.57367C15.7581 7.32397 15.9172 8.1281 15.9162 8.93998C15.9162 12.345 13.1412 15.1125 9.73615 15.1125C8.62615 15.1125 7.53865 14.82 6.59365 14.25L6.36865 14.1225L4.02865 14.7375L4.65115 12.4575L4.50115 12.2175C3.88206 11.2338 3.5544 10.0948 3.55615 8.93248C3.56365 5.52748 6.33115 2.75248 9.74365 2.75248ZM7.10365 5.49748C6.98365 5.49748 6.78115 5.54248 6.60865 5.72998C6.44365 5.91748 5.95615 6.37498 5.95615 7.28248C5.95615 8.19748 6.62365 9.07498 6.70615 9.20248C6.81115 9.32998 8.02615 11.205 9.89365 12C10.3362 12.2025 10.6812 12.315 10.9512 12.3975C11.3937 12.54 11.7987 12.5175 12.1212 12.4725C12.4812 12.42 13.2162 12.0225 13.3737 11.5875C13.5312 11.1525 13.5312 10.785 13.4862 10.7025C13.4337 10.6275 13.3137 10.5825 13.1262 10.5C12.9387 10.395 12.0237 9.94498 11.8587 9.88498C11.6862 9.82498 11.5812 9.79498 11.4387 9.97498C11.3187 10.1625 10.9587 10.5825 10.8537 10.7025C10.7412 10.83 10.6362 10.845 10.4562 10.755C10.2612 10.6575 9.66115 10.4625 8.95615 9.83248C8.40115 9.33748 8.03365 8.72998 7.92115 8.54248C7.83115 8.36248 7.91365 8.24998 8.00365 8.16748C8.08615 8.08498 8.20615 7.94998 8.28115 7.83748C8.37865 7.73248 8.40865 7.64998 8.46865 7.52998C8.52865 7.40248 8.49865 7.29748 8.45365 7.20748C8.40865 7.12498 8.03365 6.19498 7.87615 5.82748C7.72615 5.46748 7.57615 5.51248 7.45615 5.50498C7.35115 5.50498 7.23115 5.49748 7.10365 5.49748Z" fill="white"/>
</g>
</svg>
