<svg width="56" height="48" viewBox="0 0 56 48" fill="none" xmlns="http://www.w3.org/2000/svg">
<path id="Sem t&#195;&#173;tulo 2 (Traced)" fill-rule="evenodd" clip-rule="evenodd" d="M17.4638 0.0271549C15.8179 0.356114 14.4963 0.92838 13.5169 1.73631C12.7813 2.34305 12.3136 2.96497 11.8838 3.90821C11.6725 4.37181 11.4459 4.70869 11.2402 4.86472C11.0657 4.99726 10.2208 5.40977 9.36264 5.78151C7.54052 6.57082 7.14071 6.819 6.65257 7.46317C6.14094 8.13856 5.9575 8.73279 5.96046 9.70525C5.96256 10.3875 6.00515 10.6082 6.22764 11.0898C6.56997 11.831 7.15732 12.4306 7.71842 12.6118C7.95781 12.6891 9.07751 12.9466 10.2067 13.1842C14.169 14.0176 14.5178 14.1017 14.9727 14.3322C15.5834 14.6416 16.2631 15.4114 16.4664 16.0234C16.6122 16.462 16.6166 16.6452 16.5104 17.8435C16.3424 19.7395 16.511 21.4866 17.0405 23.335C17.3489 24.4113 17.6342 25.1658 18.4223 26.9888C19.0827 28.5158 19.5935 29.8534 19.5167 29.8534C19.4925 29.8534 19.1604 29.6448 18.7786 29.3898C17.7934 28.7317 16.4609 28.0382 15.0766 27.4629C13.837 26.9476 13.5328 26.7469 13.2928 26.2853C13.0706 25.8582 13.0318 24.7622 13.2045 23.7899C13.556 21.8111 13.2738 20.0276 12.2999 18.0734C11.7236 16.9171 11.0996 16.0336 10.2586 15.1829C9.35309 14.267 9.05354 14.1563 8.33852 14.4725C8.00259 14.6212 7.86681 14.7501 7.74439 15.0369L7.58559 15.4086L7.32844 15.2185C7.13383 15.0746 6.9906 15.0436 6.73889 15.0907C5.94939 15.2389 5.50517 15.9457 5.47261 17.1056L5.45122 17.8696L4.81202 18.1934C3.90277 18.6538 3.10534 19.4255 2.6935 20.2434C2.23534 21.1531 2.033 21.4064 1.46064 21.7862C0.158077 22.6509 -0.0297501 23.3933 0.567342 25.3177C1.07028 26.9386 1.62546 27.4169 3.51442 27.8574C3.95882 27.961 4.46854 28.1362 4.6473 28.2466C4.94016 28.4276 4.96776 28.4816 4.92603 28.7924C4.90054 28.9821 4.68655 29.6959 4.4504 30.3786C3.80413 32.2468 3.66787 32.9972 3.66968 34.6756C3.67102 35.9505 3.7012 36.2182 3.94393 37.1106C4.44133 38.9394 4.39158 40.331 3.74588 42.6534L3.48587 43.5883L3.00909 43.811C2.4013 44.0947 1.69831 44.7775 1.39475 45.3789C1.08575 45.991 0.902222 46.8354 0.98377 47.2698C1.11115 47.949 0.409976 47.9072 11.2191 47.8788L20.9492 47.8531L21.4266 47.6331C22.155 47.2973 22.6798 46.6608 23.4178 45.2176C24.0841 43.9145 26.0768 40.1754 26.5127 39.4104L26.7528 38.9889L26.9147 39.5059C27.1049 40.1136 27.4976 40.9075 27.8942 41.4859C28.0497 41.7128 28.1621 41.9118 28.1439 41.928C28.1257 41.9442 27.8745 42.076 27.5857 42.2209C26.4361 42.7973 25.5904 43.6551 25.0014 44.842C24.6443 45.5619 24.381 46.7737 24.474 47.2694C24.6013 47.9484 24.0826 47.9112 32.9934 47.8806L41.0019 47.8531L41.6225 47.6301C41.9639 47.5074 42.4872 47.2775 42.7855 47.1191L43.3277 46.8311L43.9791 47.0062C44.9101 47.2566 47.1238 47.2547 48.1158 47.0028C51.1671 46.228 53.8016 44.3276 54.9162 42.0972C55.2756 41.3782 55.3116 41.2403 55.3138 40.5694C55.3157 40.0218 55.265 39.7185 55.1167 39.3907C54.5439 38.1243 53.1726 37.3867 51.9405 37.6823C51.2313 37.8524 50.7628 38.247 50.1594 39.1823C49.5451 40.1347 48.6662 41.0892 48.0297 41.4956C47.5409 41.8076 46.5863 42.2076 46.5909 42.0985C46.5926 42.0599 46.6806 41.5556 46.7865 40.9779C47.0324 39.6358 47.1368 36.6486 46.9791 35.4663C46.8389 34.4145 46.5927 33.4493 46.2151 32.4701C45.6249 30.9395 45.8473 31.2255 37.612 21.4068C36.3253 19.8726 34.5215 17.7186 33.6037 16.6202C31.7432 14.3937 31.0753 13.7072 30.3603 13.2861C29.9693 13.0559 29.8848 12.9621 29.9302 12.8086C30.077 12.3118 30.0798 11.25 29.936 10.6369C29.6961 9.61434 29.2257 8.8131 27.5577 6.58581C26.699 5.43928 25.7875 4.15734 25.5322 3.73719C24.2816 1.6794 23.4125 0.93239 21.5706 0.332051C20.7403 0.0614354 20.5362 0.0336481 19.1826 0.00777062C18.3686 -0.00788958 17.5951 0.000895416 17.4638 0.0271549ZM20.6744 1.64082C21.3926 1.80105 22.1565 2.13784 22.6849 2.52725C22.9431 2.71746 23.3797 3.26901 23.9225 4.09088C24.3838 4.78919 25.386 6.18877 26.1496 7.20115C27.9301 9.56173 28.2277 10.0147 28.4104 10.6431C28.6035 11.3076 28.5516 12.3833 28.3013 12.9041C27.5733 14.4185 25.2832 15.2437 24.7215 14.1941C24.6684 14.095 24.216 12.3676 23.716 10.3555C23.2161 8.34358 22.7621 6.58476 22.7072 6.44716C22.5024 5.93401 21.8056 5.9002 21.443 6.38577L21.2556 6.63681L22.1881 10.4289C23.2444 14.7238 23.4174 15.1821 24.1749 15.6906C24.7962 16.1077 25.5528 16.258 26.2966 16.1119C27.1173 15.9506 27.9802 15.5012 28.6374 14.8928L29.2074 14.3651L29.614 14.6063C29.8377 14.739 30.2827 15.1192 30.6031 15.4514C31.1937 16.0636 42.7472 29.8174 43.7841 31.1425C44.552 32.124 45.198 33.7254 45.4981 35.3918C45.8293 37.2311 45.6885 40.1249 45.157 42.4047C44.914 43.4464 44.9148 43.4672 45.2105 43.7629C45.4378 43.9902 45.4992 44.004 46.0202 43.945C47.9912 43.7221 49.7964 42.4499 51.2138 40.2849C51.5665 39.7462 51.9438 39.2579 52.0522 39.1999C52.3151 39.0592 52.9588 39.154 53.2581 39.3774C53.939 39.8858 54.0426 40.5364 53.5905 41.4659C53.2672 42.1306 51.9756 43.4839 51.113 44.0616C50.241 44.6456 49.1173 45.1849 48.1587 45.4797C47.4038 45.7118 47.1482 45.7429 45.9673 45.7464C44.8593 45.7499 44.5098 45.7145 43.9263 45.5405L43.2223 45.3307L42.5417 45.7038C41.2837 46.3937 41.564 46.373 33.4926 46.373H26.2622L26.3443 46.0864C26.6399 45.0557 27.5575 43.9548 28.4929 43.5082C29.19 43.1757 29.4767 43.1523 29.7948 43.4025C29.921 43.5019 30.2814 43.7381 30.5955 43.9274C31.3984 44.4117 31.898 44.3891 32.121 43.8589C32.3185 43.3894 32.1479 43.0817 31.4985 42.7356C29.0085 41.4084 27.5889 38.6142 28.204 36.2512C28.7468 34.1658 30.3481 32.9723 32.9524 32.712C33.5453 32.6527 34.1078 32.5627 34.2025 32.5121C34.5866 32.3065 34.6195 31.6499 34.2618 31.3262C34.1047 31.184 33.9403 31.169 33.0529 31.2159C31.1671 31.3156 29.4955 32.0257 28.3013 33.2345C27.6792 33.8641 27.0665 34.8266 26.867 35.4873C26.8274 35.6186 26.2056 36.8217 25.4851 38.161C23.0275 42.7297 22.5879 43.5555 22.056 44.6023C21.7633 45.1782 21.369 45.8121 21.1797 46.0112L20.8355 46.373H18.52H16.2045L16.2707 45.8717C16.4368 44.6122 17.199 43.7872 18.622 43.3268C18.8126 43.2651 19.0321 43.1411 19.1099 43.0511C19.2191 42.9247 20.8251 36.5459 21.3749 34.0549C21.5174 33.4091 21.4932 31.8007 21.3265 30.8451C21.1279 29.7062 20.7676 28.6647 19.7632 26.3266C18.8825 24.2766 18.4478 23.0399 18.1833 21.8323C17.9688 20.853 17.891 18.7503 18.0261 17.5807C18.2141 15.9527 17.8796 14.8973 16.8445 13.8521C15.8964 12.895 15.7577 12.8481 10.6461 11.7568C9.11303 11.4295 8.18039 11.1847 8.02016 11.0673C7.41056 10.6208 7.23591 9.44905 7.6594 8.64599C7.94912 8.09655 8.34511 7.84159 10.0112 7.13211C11.4712 6.51038 12.3132 6.04745 12.6648 5.67313C12.7824 5.54795 12.9902 5.17076 13.1267 4.83493C13.2632 4.49909 13.4946 4.0503 13.641 3.83755C14.9562 1.92681 17.8734 1.01566 20.6744 1.64082ZM15.5063 4.2174C14.5676 4.54436 14.3293 5.76747 15.0812 6.40009C16.1963 7.33846 17.7243 6.06827 17.048 4.76532C16.7768 4.24299 16.1116 4.00656 15.5063 4.2174ZM9.66104 16.7755C10.9177 18.3344 11.8296 20.6559 11.8303 22.2981C11.8305 22.6984 11.7587 23.4683 11.6707 24.0089C11.4741 25.2182 11.5714 26.0423 12.0179 26.9492C12.4162 27.7583 12.8812 28.1313 14.157 28.6646C16.3074 29.5636 18.0558 30.5847 19.4094 31.732L20.0658 32.2884L20.0059 33.0046C19.9729 33.3985 19.4847 35.6076 18.9208 37.9137L17.8957 42.1067L17.3745 42.3372C15.7853 43.04 14.8183 44.298 14.6272 45.9112L14.5725 46.373H12.0077C9.49289 46.373 9.44276 46.3692 9.44276 46.179C9.44276 45.6572 10.021 44.9194 10.5302 44.7916C10.6729 44.7558 10.9851 44.8685 11.4747 45.1325C12.1493 45.4964 12.2262 45.5171 12.468 45.4009C12.6122 45.3316 12.7948 45.1596 12.8738 45.0188C13.1144 44.5895 12.932 44.2899 12.1632 43.8517C11.1821 43.2925 10.2868 42.3601 9.85202 41.4446C9.54101 40.7896 9.49289 40.5911 9.45937 39.8252C9.41258 38.7567 9.57501 38.1267 10.0838 37.4026C10.7615 36.438 11.9902 35.8207 13.4372 35.718C14.4825 35.6438 14.5788 35.6126 14.7427 35.2957C14.9148 34.9628 14.8546 34.6202 14.5803 34.3723C14.4216 34.2289 14.2548 34.203 13.6348 34.2258C10.8675 34.3271 8.55423 36.0667 8.05521 38.4217C7.97987 38.7773 7.91827 39.283 7.91827 39.5456C7.91827 40.6434 8.39983 42.0571 9.11093 43.0468C9.29341 43.3009 9.44276 43.523 9.44276 43.5402C9.44276 43.5575 9.23058 43.7092 8.97123 43.8772C8.2734 44.3294 7.43749 45.5899 7.43749 46.19C7.43749 46.3651 7.34219 46.373 5.24124 46.373C3.97305 46.373 3.04499 46.336 3.04499 46.2855C3.04499 46.0739 3.46133 45.2518 3.68964 45.0123C3.82743 44.8679 4.04142 44.7497 4.16537 44.7497C4.66477 44.7497 4.95019 44.166 5.42716 42.1691C5.90985 40.1481 5.89314 38.6687 5.36461 36.6331C4.98017 35.1524 4.99459 33.7511 5.41007 32.2328C5.5765 31.6246 5.86984 30.7223 6.06187 30.2275C6.83829 28.2281 6.30069 27.0334 4.41431 26.5664C2.49679 26.0917 2.31641 25.9685 2.00445 24.9211C1.63787 23.69 1.63777 23.6923 2.06146 23.2891C2.26877 23.0918 2.68147 22.6981 2.97844 22.4142C3.34865 22.0604 3.65412 21.6355 3.94937 21.0639C4.48516 20.0264 5.16953 19.3602 6.01671 19.0512C6.75665 18.7815 6.90762 18.5636 6.82321 17.8878C6.78644 17.5931 6.80287 17.268 6.86245 17.1112L6.96501 16.8414L7.5749 17.4271C8.2162 18.0429 8.52625 18.1517 8.8153 17.8628C9.00045 17.6776 9.00341 17.2796 8.82208 16.9624C8.60274 16.5786 8.66108 15.8609 8.90544 15.9378C8.96464 15.9564 9.30468 16.3334 9.66104 16.7755ZM4.75644 21.634C4.38852 22.002 4.36933 22.5474 4.71147 22.9165C4.89729 23.117 5.03365 23.1692 5.37139 23.1692C5.72967 23.1692 5.83642 23.1226 6.0444 22.8754C6.39026 22.4644 6.37832 21.9998 6.01251 21.634C5.80587 21.4274 5.64277 21.3549 5.38447 21.3549C5.12618 21.3549 4.96308 21.4274 4.75644 21.634Z" fill="white"/>
</svg>
