<svg width="19" height="18" viewBox="0 0 19 18" fill="none" xmlns="http://www.w3.org/2000/svg">
<g id="mdi:phone">
<path id="Vector" d="M5.67081 8.0925C6.75081 10.215 8.49081 11.955 10.6133 13.035L12.2633 11.385C12.4733 11.175 12.7658 11.115 13.0283 11.1975C13.8683 11.475 14.7683 11.625 15.7058 11.625C15.9047 11.625 16.0955 11.704 16.2361 11.8447C16.3768 11.9853 16.4558 12.1761 16.4558 12.375V15C16.4558 15.1989 16.3768 15.3897 16.2361 15.5303C16.0955 15.671 15.9047 15.75 15.7058 15.75C12.3243 15.75 9.08129 14.4067 6.6902 12.0156C4.29911 9.62452 2.95581 6.38151 2.95581 3C2.95581 2.80109 3.03483 2.61032 3.17548 2.46967C3.31613 2.32902 3.5069 2.25 3.70581 2.25H6.33081C6.52972 2.25 6.72049 2.32902 6.86114 2.46967C7.00179 2.61032 7.08081 2.80109 7.08081 3C7.08081 3.9375 7.23081 4.8375 7.50831 5.6775C7.59081 5.94 7.53081 6.2325 7.32081 6.4425L5.67081 8.0925Z" fill="white"/>
</g>
</svg>
