<svg width="19" height="18" viewBox="0 0 19 18" fill="none" xmlns="http://www.w3.org/2000/svg">
<g id="mdi:whatsapp">
<path id="Vector" d="M9.73591 1.50001C5.64091 1.50001 2.30341 4.83751 2.30341 8.93251C2.30341 10.245 2.64841 11.52 3.29341 12.645L2.24341 16.5L6.18091 15.465C7.26841 16.0575 8.49091 16.3725 9.73591 16.3725C13.8309 16.3725 17.1684 13.035 17.1684 8.94001C17.1684 6.95251 16.3959 5.08501 14.9934 3.68251C14.3057 2.98809 13.4867 2.43748 12.584 2.06278C11.6814 1.68808 10.7132 1.49677 9.73591 1.50001ZM9.74341 2.75251C11.3934 2.75251 12.9384 3.39751 14.1084 4.56751C14.6824 5.14165 15.1376 5.82339 15.4477 6.5737C15.7579 7.324 15.917 8.12813 15.9159 8.94001C15.9159 12.345 13.1409 15.1125 9.73591 15.1125C8.62591 15.1125 7.53841 14.82 6.59341 14.25L6.36841 14.1225L4.02841 14.7375L4.65091 12.4575L4.50091 12.2175C3.88182 11.2338 3.55416 10.0948 3.55591 8.93251C3.56341 5.52751 6.33091 2.75251 9.74341 2.75251ZM7.10341 5.49751C6.98341 5.49751 6.78091 5.54251 6.60841 5.73001C6.44341 5.91751 5.95591 6.37501 5.95591 7.28251C5.95591 8.19751 6.62341 9.07501 6.70591 9.20251C6.81091 9.33001 8.02591 11.205 9.89341 12C10.3359 12.2025 10.6809 12.315 10.9509 12.3975C11.3934 12.54 11.7984 12.5175 12.1209 12.4725C12.4809 12.42 13.2159 12.0225 13.3734 11.5875C13.5309 11.1525 13.5309 10.785 13.4859 10.7025C13.4334 10.6275 13.3134 10.5825 13.1259 10.5C12.9384 10.395 12.0234 9.94501 11.8584 9.88501C11.6859 9.82501 11.5809 9.79501 11.4384 9.97501C11.3184 10.1625 10.9584 10.5825 10.8534 10.7025C10.7409 10.83 10.6359 10.845 10.4559 10.755C10.2609 10.6575 9.66091 10.4625 8.95591 9.83251C8.40091 9.33751 8.03341 8.73001 7.92091 8.54251C7.83091 8.36251 7.91341 8.25001 8.00341 8.16751C8.08591 8.08501 8.20591 7.95001 8.28091 7.83751C8.37841 7.73251 8.40841 7.65001 8.46841 7.53001C8.52841 7.40251 8.49841 7.29751 8.45341 7.20751C8.40841 7.12501 8.03341 6.19501 7.87591 5.82751C7.72591 5.46751 7.57591 5.51251 7.45591 5.50501C7.35091 5.50501 7.23091 5.49751 7.10341 5.49751Z" fill="white"/>
</g>
</svg>
