<svg width="56" height="48" viewBox="0 0 56 48" fill="none" xmlns="http://www.w3.org/2000/svg">
<path id="Sem t&#195;&#173;tulo 2 (Traced)" fill-rule="evenodd" clip-rule="evenodd" d="M17.4638 0.0271549C15.8179 0.356114 14.4963 0.92838 13.5169 1.73631C12.7813 2.34305 12.3136 2.96497 11.8838 3.90821C11.6725 4.37181 11.4459 4.70869 11.2402 4.86472C11.0657 4.99726 10.2208 5.40977 9.36261 5.78151C7.54049 6.57082 7.14068 6.819 6.65254 7.46317C6.14091 8.13856 5.95747 8.73279 5.96043 9.70525C5.96253 10.3875 6.00512 10.6082 6.22761 11.0898C6.56994 11.831 7.15729 12.4306 7.71839 12.6118C7.95778 12.6891 9.07748 12.9466 10.2066 13.1842C14.169 14.0176 14.5178 14.1017 14.9727 14.3322C15.5833 14.6416 16.2631 15.4114 16.4664 16.0234C16.6121 16.462 16.6165 16.6452 16.5103 17.8435C16.3424 19.7395 16.511 21.4866 17.0405 23.335C17.3488 24.4113 17.6342 25.1658 18.4223 26.9888C19.0826 28.5158 19.5935 29.8534 19.5166 29.8534C19.4925 29.8534 19.1604 29.6448 18.7786 29.3898C17.7933 28.7317 16.4609 28.0382 15.0766 27.4629C13.8369 26.9476 13.5328 26.7469 13.2927 26.2853C13.0705 25.8582 13.0318 24.7622 13.2045 23.7899C13.556 21.8111 13.2737 20.0276 12.2999 18.0734C11.7236 16.9171 11.0996 16.0336 10.2586 15.1829C9.35306 14.267 9.05351 14.1563 8.33849 14.4725C8.00256 14.6212 7.86678 14.7501 7.74436 15.0369L7.58556 15.4086L7.32841 15.2185C7.1338 15.0746 6.99057 15.0436 6.73886 15.0907C5.94936 15.2389 5.50514 15.9457 5.47258 17.1056L5.45119 17.8696L4.81199 18.1934C3.90274 18.6538 3.10531 19.4255 2.69347 20.2434C2.23531 21.1531 2.03297 21.4064 1.46061 21.7862C0.158046 22.6509 -0.0297806 23.3933 0.567312 25.3177C1.07025 26.9386 1.62543 27.4169 3.51439 27.8574C3.95879 27.961 4.46851 28.1362 4.64727 28.2466C4.94013 28.4276 4.96773 28.4816 4.926 28.7924C4.90051 28.9821 4.68651 29.6959 4.45037 30.3786C3.8041 32.2468 3.66784 32.9972 3.66965 34.6756C3.67099 35.9505 3.70116 36.2182 3.9439 37.1106C4.4413 38.9394 4.39155 40.331 3.74585 42.6534L3.48584 43.5883L3.00906 43.811C2.40127 44.0947 1.69828 44.7775 1.39472 45.3789C1.08572 45.991 0.902192 46.8354 0.983739 47.2698C1.11112 47.949 0.409945 47.9072 11.2191 47.8788L20.9491 47.8531L21.4266 47.6331C22.155 47.2973 22.6798 46.6608 23.4177 45.2176C24.084 43.9145 26.0768 40.1754 26.5126 39.4104L26.7528 38.9889L26.9146 39.5059C27.1048 40.1136 27.4976 40.9075 27.8942 41.4859C28.0497 41.7128 28.1621 41.9118 28.1439 41.928C28.1257 41.9442 27.8745 42.076 27.5856 42.2209C26.436 42.7973 25.5904 43.6551 25.0014 44.842C24.6443 45.5619 24.3809 46.7737 24.4739 47.2694C24.6013 47.9484 24.0825 47.9112 32.9934 47.8806L41.0018 47.8531L41.6225 47.6301C41.9639 47.5074 42.4872 47.2775 42.7855 47.1191L43.3277 46.8311L43.9791 47.0062C44.9101 47.2566 47.1238 47.2547 48.1158 47.0028C51.1671 46.228 53.8016 44.3276 54.9162 42.0972C55.2756 41.3782 55.3115 41.2403 55.3137 40.5694C55.3156 40.0218 55.2649 39.7185 55.1166 39.3907C54.5439 38.1243 53.1726 37.3867 51.9405 37.6823C51.2313 37.8524 50.7628 38.247 50.1594 39.1823C49.545 40.1347 48.6662 41.0892 48.0296 41.4956C47.5409 41.8076 46.5863 42.2076 46.5909 42.0985C46.5926 42.0599 46.6806 41.5556 46.7865 40.9779C47.0323 39.6358 47.1368 36.6486 46.9791 35.4663C46.8389 34.4145 46.5927 33.4493 46.2151 32.4701C45.6248 30.9395 45.8472 31.2255 37.612 21.4068C36.3253 19.8726 34.5215 17.7186 33.6036 16.6202C31.7431 14.3937 31.0753 13.7072 30.3603 13.2861C29.9692 13.0559 29.8848 12.9621 29.9302 12.8086C30.0769 12.3118 30.0798 11.25 29.936 10.6369C29.696 9.61434 29.2257 8.8131 27.5577 6.58581C26.6989 5.43928 25.7875 4.15734 25.5321 3.73719C24.2815 1.6794 23.4125 0.93239 21.5706 0.332051C20.7403 0.0614354 20.5362 0.0336481 19.1826 0.00777062C18.3686 -0.00788958 17.5951 0.000895416 17.4638 0.0271549ZM20.6743 1.64082C21.3926 1.80105 22.1565 2.13784 22.6848 2.52725C22.9431 2.71746 23.3796 3.26901 23.9225 4.09088C24.3838 4.78919 25.3859 6.18877 26.1496 7.20115C27.9301 9.56173 28.2277 10.0147 28.4104 10.6431C28.6034 11.3076 28.5516 12.3833 28.3012 12.9041C27.5733 14.4185 25.2832 15.2437 24.7214 14.1941C24.6683 14.095 24.2159 12.3676 23.7159 10.3555C23.2161 8.34358 22.7621 6.58476 22.7072 6.44716C22.5024 5.93401 21.8056 5.9002 21.443 6.38577L21.2556 6.63681L22.1881 10.4289C23.2443 14.7238 23.4173 15.1821 24.1749 15.6906C24.7962 16.1077 25.5528 16.258 26.2965 16.1119C27.1173 15.9506 27.9802 15.5012 28.6373 14.8928L29.2073 14.3651L29.614 14.6063C29.8376 14.739 30.2827 15.1192 30.6031 15.4514C31.1937 16.0636 42.7472 29.8174 43.7841 31.1425C44.552 32.124 45.198 33.7254 45.498 35.3918C45.8293 37.2311 45.6884 40.1249 45.1569 42.4047C44.914 43.4464 44.9148 43.4672 45.2105 43.7629C45.4378 43.9902 45.4992 44.004 46.0202 43.945C47.9911 43.7221 49.7964 42.4499 51.2138 40.2849C51.5664 39.7462 51.9437 39.2579 52.0522 39.1999C52.3151 39.0592 52.9588 39.154 53.258 39.3774C53.939 39.8858 54.0426 40.5364 53.5904 41.4659C53.2672 42.1306 51.9755 43.4839 51.113 44.0616C50.241 44.6456 49.1173 45.1849 48.1586 45.4797C47.4038 45.7118 47.1482 45.7429 45.9673 45.7464C44.8593 45.7499 44.5098 45.7145 43.9263 45.5405L43.2222 45.3307L42.5417 45.7038C41.2837 46.3937 41.564 46.373 33.4926 46.373H26.2622L26.3443 46.0864C26.6399 45.0557 27.5575 43.9548 28.4929 43.5082C29.1899 43.1757 29.4767 43.1523 29.7948 43.4025C29.921 43.5019 30.2814 43.7381 30.5954 43.9274C31.3984 44.4117 31.898 44.3891 32.121 43.8589C32.3184 43.3894 32.1479 43.0817 31.4985 42.7356C29.0085 41.4084 27.5889 38.6142 28.204 36.2512C28.7468 34.1658 30.348 32.9723 32.9524 32.712C33.5453 32.6527 34.1078 32.5627 34.2024 32.5121C34.5866 32.3065 34.6194 31.6499 34.2617 31.3262C34.1047 31.184 33.9402 31.169 33.0529 31.2159C31.167 31.3156 29.4955 32.0257 28.3012 33.2345C27.6792 33.8641 27.0665 34.8266 26.867 35.4873C26.8274 35.6186 26.2055 36.8217 25.4851 38.161C23.0275 42.7297 22.5878 43.5555 22.056 44.6023C21.7633 45.1782 21.369 45.8121 21.1797 46.0112L20.8355 46.373H18.52H16.2045L16.2707 45.8717C16.4367 44.6122 17.199 43.7872 18.622 43.3268C18.8126 43.2651 19.0321 43.1411 19.1098 43.0511C19.2191 42.9247 20.8251 36.5459 21.3748 34.0549C21.5174 33.4091 21.4931 31.8007 21.3265 30.8451C21.1279 29.7062 20.7675 28.6647 19.7632 26.3266C18.8825 24.2766 18.4478 23.0399 18.1833 21.8323C17.9687 20.853 17.891 18.7503 18.026 17.5807C18.2141 15.9527 17.8796 14.8973 16.8445 13.8521C15.8963 12.895 15.7577 12.8481 10.6461 11.7568C9.113 11.4295 8.18036 11.1847 8.02013 11.0673C7.41053 10.6208 7.23588 9.44905 7.65937 8.64599C7.94909 8.09655 8.34508 7.84159 10.0112 7.13211C11.4712 6.51038 12.3131 6.04745 12.6648 5.67313C12.7824 5.54795 12.9901 5.17076 13.1267 4.83493C13.2631 4.49909 13.4946 4.0503 13.641 3.83755C14.9562 1.92681 17.8734 1.01566 20.6743 1.64082ZM15.5063 4.2174C14.5675 4.54436 14.3293 5.76747 15.0812 6.40009C16.1963 7.33846 17.7243 6.06827 17.0479 4.76532C16.7768 4.24299 16.1116 4.00656 15.5063 4.2174ZM9.66101 16.7755C10.9176 18.3344 11.8296 20.6559 11.8302 22.2981C11.8304 22.6984 11.7586 23.4683 11.6707 24.0089C11.4741 25.2182 11.5714 26.0423 12.0179 26.9492C12.4162 27.7583 12.8812 28.1313 14.157 28.6646C16.3073 29.5636 18.0557 30.5847 19.4094 31.732L20.0658 32.2884L20.0059 33.0046C19.9729 33.3985 19.4846 35.6076 18.9208 37.9137L17.8957 42.1067L17.3744 42.3372C15.7853 43.04 14.8183 44.298 14.6272 45.9112L14.5725 46.373H12.0077C9.49286 46.373 9.44273 46.3692 9.44273 46.179C9.44273 45.6572 10.021 44.9194 10.5302 44.7916C10.6729 44.7558 10.9851 44.8685 11.4746 45.1325C12.1493 45.4964 12.2261 45.5171 12.468 45.4009C12.6122 45.3316 12.7948 45.1596 12.8737 45.0188C13.1144 44.5895 12.932 44.2899 12.1632 43.8517C11.1821 43.2925 10.2868 42.3601 9.85199 41.4446C9.54098 40.7896 9.49286 40.5911 9.45934 39.8252C9.41255 38.7567 9.57498 38.1267 10.0837 37.4026C10.7614 36.438 11.9902 35.8207 13.4371 35.718C14.4824 35.6438 14.5788 35.6126 14.7426 35.2957C14.9148 34.9628 14.8546 34.6202 14.5802 34.3723C14.4215 34.2289 14.2548 34.203 13.6348 34.2258C10.8675 34.3271 8.5542 36.0667 8.05518 38.4217C7.97983 38.7773 7.91824 39.283 7.91824 39.5456C7.91824 40.6434 8.3998 42.0571 9.1109 43.0468C9.29338 43.3009 9.44273 43.523 9.44273 43.5402C9.44273 43.5575 9.23055 43.7092 8.9712 43.8772C8.27337 44.3294 7.43746 45.5899 7.43746 46.19C7.43746 46.3651 7.34216 46.373 5.24121 46.373C3.97302 46.373 3.04496 46.336 3.04496 46.2855C3.04496 46.0739 3.4613 45.2518 3.68961 45.0123C3.8274 44.8679 4.04139 44.7497 4.16534 44.7497C4.66474 44.7497 4.95016 44.166 5.42713 42.1691C5.90982 40.1481 5.89311 38.6687 5.36458 36.6331C4.98014 35.1524 4.99456 33.7511 5.41004 32.2328C5.57647 31.6246 5.86981 30.7223 6.06184 30.2275C6.83826 28.2281 6.30066 27.0334 4.41428 26.5664C2.49676 26.0917 2.31638 25.9685 2.00442 24.9211C1.63784 23.69 1.63774 23.6923 2.06143 23.2891C2.26873 23.0918 2.68144 22.6981 2.97841 22.4142C3.34862 22.0604 3.65409 21.6355 3.94934 21.0639C4.48513 20.0264 5.1695 19.3602 6.01668 19.0512C6.75662 18.7815 6.90759 18.5636 6.82318 17.8878C6.78641 17.5931 6.80284 17.268 6.86242 17.1112L6.96498 16.8414L7.57487 17.4271C8.21617 18.0429 8.52622 18.1517 8.81527 17.8628C9.00042 17.6776 9.00338 17.2796 8.82205 16.9624C8.60271 16.5786 8.66105 15.8609 8.90541 15.9378C8.96461 15.9564 9.30465 16.3334 9.66101 16.7755ZM4.75641 21.634C4.38849 22.002 4.3693 22.5474 4.71144 22.9165C4.89726 23.117 5.03362 23.1692 5.37136 23.1692C5.72964 23.1692 5.83639 23.1226 6.04437 22.8754C6.39023 22.4644 6.37829 21.9998 6.01248 21.634C5.80584 21.4274 5.64274 21.3549 5.38444 21.3549C5.12615 21.3549 4.96305 21.4274 4.75641 21.634Z" fill="white"/>
</svg>
