<svg width="22" height="22" viewBox="0 0 22 22" fill="none" xmlns="http://www.w3.org/2000/svg">
<path id="Vector" d="M11 0.333344C5.11198 0.333344 0.333313 5.11201 0.333313 11C0.333313 16.888 5.11198 21.6667 11 21.6667C16.888 21.6667 21.6666 16.888 21.6666 11C21.6666 5.11201 16.888 0.333344 11 0.333344ZM11 4.60001C13.0586 4.60001 14.7333 6.27468 14.7333 8.33334C14.7333 10.392 13.0586 12.0667 11 12.0667C8.94131 12.0667 7.26665 10.392 7.26665 8.33334C7.26665 6.27468 8.94131 4.60001 11 4.60001ZM11 19.5333C8.83465 19.5333 6.27465 18.6587 4.45065 16.4613C6.31926 14.996 8.62532 14.1996 11 14.1996C13.3746 14.1996 15.6807 14.996 17.5493 16.4613C15.7253 18.6587 13.1653 19.5333 11 19.5333Z" fill="white"/>
</svg>
