<svg width="22" height="22" viewBox="0 0 22 22" fill="none" xmlns="http://www.w3.org/2000/svg">
<path id="Vector" d="M10.9999 0.333344C5.11192 0.333344 0.333252 5.11201 0.333252 11C0.333252 16.888 5.11192 21.6667 10.9999 21.6667C16.8879 21.6667 21.6666 16.888 21.6666 11C21.6666 5.11201 16.8879 0.333344 10.9999 0.333344ZM10.9999 4.60001C13.0586 4.60001 14.7333 6.27468 14.7333 8.33334C14.7333 10.392 13.0586 12.0667 10.9999 12.0667C8.94125 12.0667 7.26659 10.392 7.26659 8.33334C7.26659 6.27468 8.94125 4.60001 10.9999 4.60001ZM10.9999 19.5333C8.83459 19.5333 6.27459 18.6587 4.45059 16.4613C6.3192 14.996 8.62526 14.1996 10.9999 14.1996C13.3746 14.1996 15.6806 14.996 17.5493 16.4613C15.7253 18.6587 13.1653 19.5333 10.9999 19.5333Z" fill="white"/>
</svg>
